<svg xmlns="http://www.w3.org/2000/svg" width="18.01" height="18.036" viewBox="0 0 18.01 18.036"><defs><style>.a{fill:#151726;}</style></defs><path class="a" d="M12,21.041c-2.46,0-2.75-.013-3.71-.055a6.583,6.583,0,0,1-2.185-.45,4.619,4.619,0,0,1-2.63-2.631,6.591,6.591,0,0,1-.419-2.187C3,14.76,3,14.446,3,12.005c0-2.467.013-2.755.056-3.71a6.59,6.59,0,0,1,.419-2.184A4.61,4.61,0,0,1,6.11,3.479a6.533,6.533,0,0,1,2.184-.42c.955-.054,1.269-.054,3.708-.054,2.48,0,2.765.013,3.71.054a6.575,6.575,0,0,1,2.19.42,4.615,4.615,0,0,1,2.633,2.632,6.573,6.573,0,0,1,.421,2.217c.056.958.056,1.271.056,3.711S21,14.8,20.956,15.746a6.6,6.6,0,0,1-.42,2.189A4.624,4.624,0,0,1,17.9,20.567a6.611,6.611,0,0,1-2.186.419C14.761,21.041,14.448,21.041,12,21.041ZM11.968,4.588c-2.446,0-2.7.012-3.655.055a4.989,4.989,0,0,0-1.669.311A2.989,2.989,0,0,0,4.925,6.666a5.015,5.015,0,0,0-.311,1.687c-.053.969-.053,1.223-.053,3.652,0,2.4.009,2.691.053,3.654a5.067,5.067,0,0,0,.311,1.67A2.991,2.991,0,0,0,6.644,19.04a4.921,4.921,0,0,0,1.669.311c.968.056,1.223.056,3.655.056,2.453,0,2.707-.012,3.654-.056a4.962,4.962,0,0,0,1.67-.311A3,3,0,0,0,19,17.331a5.043,5.043,0,0,0,.311-1.688h.011c.043-.956.043-1.211.043-3.654s-.011-2.7-.054-3.655A5.059,5.059,0,0,0,19,6.666a3,3,0,0,0-1.71-1.712,4.944,4.944,0,0,0-1.67-.311C14.655,4.588,14.4,4.588,11.968,4.588ZM12,16.624A4.623,4.623,0,1,1,16.622,12,4.623,4.623,0,0,1,12,16.624ZM12,9a3,3,0,1,0,3,3A3,3,0,0,0,12,9Zm4.8-.713a1.079,1.079,0,1,1,.765-.315A1.078,1.078,0,0,1,16.8,8.285Z" transform="translate(-3.002 -3.005)"/></svg>