<svg xmlns="http://www.w3.org/2000/svg" width="18" height="18" viewBox="0 0 18 18"><defs><style>.a{fill:#fff;}</style></defs><path class="a" d="M20.872,22A16.562,16.562,0,0,1,4,5.128,1.127,1.127,0,0,1,5.125,4H8.094a1.126,1.126,0,0,1,1.113.961A13.969,13.969,0,0,0,10.35,8.782l.116.25a.8.8,0,0,1-.259.981,2.176,2.176,0,0,0-.555,3.01,13.3,13.3,0,0,0,3.326,3.326,2.176,2.176,0,0,0,3.01-.555.8.8,0,0,1,.982-.26l.248.115a13.97,13.97,0,0,0,3.821,1.143A1.126,1.126,0,0,1,22,17.905v2.97A1.126,1.126,0,0,1,20.874,22Z" transform="translate(-4 -4)"/></svg>