<svg xmlns="http://www.w3.org/2000/svg" width="20" height="20" viewBox="0 0 20 20"><defs><style>.a{fill:#fff;}</style></defs><path class="a" d="M12,22a9.9,9.9,0,0,1-4.364-1,10.053,10.053,0,0,1-1.425-.845l-.137-.1A10.089,10.089,0,0,1,3.11,16.584,9.891,9.891,0,0,1,2,12a10,10,0,0,1,20,0,9.891,9.891,0,0,1-1.109,4.582,9.941,9.941,0,0,1-4.442,4.37l-.08.04A9.9,9.9,0,0,1,12,22Zm0-5a3.99,3.99,0,0,0-3.557,2.167,8.014,8.014,0,0,0,7.114,0v0A3.987,3.987,0,0,0,12,17Zm0-2a6.015,6.015,0,0,1,5.229,3.056l.015-.013.014-.012-.017.015-.01.008a8,8,0,1,0-10.46,0A6.016,6.016,0,0,1,12,15Zm0-1a4,4,0,1,1,2.828-1.172A4,4,0,0,1,12,14Zm0-6a2,2,0,1,0,2,2A2,2,0,0,0,12,8Z" transform="translate(-2 -2)"/></svg>